REM DIRINDEX 1\4,1\2\5,1\2\6,1\3\7,1\3\8
REM DIRNAME folder01,folder02,folder03,folder04,folder05,folder06,folder07,folder08
TITLE ""
FILE "021_Day11_Check2_Phrases.mp3" MP3
  TRACK 01 AUDIO
    TITLE "0:"
    INDEX 01 00:00:00
  TRACK 02 AUDIO
    TITLE "4:cjc124_0661"
    INDEX 01 00:00:31
  TRACK 03 AUDIO
    TITLE "0:"
    INDEX 01 00:01:46
  TRACK 04 AUDIO
    TITLE "5:cjc124_0662"
    INDEX 01 00:02:02
  TRACK 05 AUDIO
    TITLE "0:"
    INDEX 01 00:03:66
  TRACK 06 AUDIO
    TITLE "6:cjc124_0663"
    INDEX 01 00:04:11
  TRACK 07 AUDIO
    TITLE "0:"
    INDEX 01 00:05:54
  TRACK 08 AUDIO
    TITLE "5:cjc124_0664"
    INDEX 01 00:06:18
  TRACK 09 AUDIO
    TITLE "0:"
    INDEX 01 00:08:09
  TRACK 10 AUDIO
    TITLE "6:cjc124_0665"
    INDEX 01 00:08:30
  TRACK 11 AUDIO
    TITLE "0:"
    INDEX 01 00:10:14
  TRACK 12 AUDIO
    TITLE "5:cjc124_0666"
    INDEX 01 00:10:53
  TRACK 13 AUDIO
    TITLE "0:"
    INDEX 01 00:12:16
  TRACK 14 AUDIO
    TITLE "6:cjc124_0667"
    INDEX 01 00:12:38
  TRACK 15 AUDIO
    TITLE "0:"
    INDEX 01 00:13:63
  TRACK 16 AUDIO
    TITLE "5:cjc124_0668"
    INDEX 01 00:14:25
  TRACK 17 AUDIO
    TITLE "0:"
    INDEX 01 00:16:06
  TRACK 18 AUDIO
    TITLE "6:cjc124_0669"
    INDEX 01 00:16:28
  TRACK 19 AUDIO
    TITLE "0:"
    INDEX 01 00:17:74
  TRACK 20 AUDIO
    TITLE "5:cjc124_0670"
    INDEX 01 00:18:37
  TRACK 21 AUDIO
    TITLE "0:"
    INDEX 01 00:21:00
  TRACK 22 AUDIO
    TITLE "6:cjc124_0671"
    INDEX 01 00:21:17
  TRACK 23 AUDIO
    TITLE "0:"
    INDEX 01 00:23:30
  TRACK 24 AUDIO
    TITLE "5:cjc124_0672"
    INDEX 01 00:23:67
  TRACK 25 AUDIO
    TITLE "0:"
    INDEX 01 00:25:29
  TRACK 26 AUDIO
    TITLE "6:cjc124_0673"
    INDEX 01 00:25:46
  TRACK 27 AUDIO
    TITLE "0:"
    INDEX 01 00:27:04
  TRACK 28 AUDIO
    TITLE "5:cjc124_0674"
    INDEX 01 00:27:39
  TRACK 29 AUDIO
    TITLE "0:"
    INDEX 01 00:29:72
  TRACK 30 AUDIO
    TITLE "6:cjc124_0675"
    INDEX 01 00:30:20
  TRACK 31 AUDIO
    TITLE "0:"
    INDEX 01 00:32:23
  TRACK 32 AUDIO
    TITLE "5:cjc124_0676"
    INDEX 01 00:32:60
  TRACK 33 AUDIO
    TITLE "0:"
    INDEX 01 00:34:18
  TRACK 34 AUDIO
    TITLE "6:cjc124_0677"
    INDEX 01 00:34:53
  TRACK 35 AUDIO
    TITLE "0:"
    INDEX 01 00:36:07
  TRACK 36 AUDIO
    TITLE "5:cjc124_0678"
    INDEX 01 00:36:44
  TRACK 37 AUDIO
    TITLE "0:"
    INDEX 01 00:39:13
  TRACK 38 AUDIO
    TITLE "6:cjc124_0679"
    INDEX 01 00:39:35
  TRACK 39 AUDIO
    TITLE "0:"
    INDEX 01 00:42:08
  TRACK 40 AUDIO
    TITLE "5:cjc124_0680"
    INDEX 01 00:42:45
  TRACK 41 AUDIO
    TITLE "0:"
    INDEX 01 00:44:44
  TRACK 42 AUDIO
    TITLE "6:cjc124_0681"
    INDEX 01 00:44:61
  TRACK 43 AUDIO
    TITLE "0:"
    INDEX 01 00:46:15
  TRACK 44 AUDIO
    TITLE "5:cjc124_0682"
    INDEX 01 00:46:54
  TRACK 45 AUDIO
    TITLE "0:"
    INDEX 01 00:49:45
  TRACK 46 AUDIO
    TITLE "6:cjc124_0683"
    INDEX 01 00:49:63
  TRACK 47 AUDIO
    TITLE "0:"
    INDEX 01 00:52:08
  TRACK 48 AUDIO
    TITLE "5:cjc124_0684"
    INDEX 01 00:52:47
  TRACK 49 AUDIO
    TITLE "0:"
    INDEX 01 00:54:09
  TRACK 50 AUDIO
    TITLE "6:cjc124_0685"
    INDEX 01 00:54:25
  TRACK 51 AUDIO
    TITLE "0:"
    INDEX 01 00:55:61
  TRACK 52 AUDIO
    TITLE "5:cjc124_0686"
    INDEX 01 00:56:24
  TRACK 53 AUDIO
    TITLE "0:"
    INDEX 01 00:58:03
  TRACK 54 AUDIO
    TITLE "6:cjc124_0687"
    INDEX 01 00:58:34
  TRACK 55 AUDIO
    TITLE "0:"
    INDEX 01 00:59:65
  TRACK 56 AUDIO
    TITLE "5:cjc124_0688"
    INDEX 01 01:00:29
  TRACK 57 AUDIO
    TITLE "0:"
    INDEX 01 01:03:00
  TRACK 58 AUDIO
    TITLE "6:cjc124_0689"
    INDEX 01 01:03:24
  TRACK 59 AUDIO
    TITLE "0:"
    INDEX 01 01:05:68
  TRACK 60 AUDIO
    TITLE "5:cjc124_0690"
    INDEX 01 01:06:38
  TRACK 61 AUDIO
    TITLE "0:"
    INDEX 01 01:08:35
  TRACK 62 AUDIO
    TITLE "6:cjc124_0691"
    INDEX 01 01:08:50
  TRACK 63 AUDIO
    TITLE "0:"
    INDEX 01 01:10:30
  TRACK 64 AUDIO
    TITLE "5:cjc124_0692"
    INDEX 01 01:10:67
  TRACK 65 AUDIO
    TITLE "0:"
    INDEX 01 01:13:02
  TRACK 66 AUDIO
    TITLE "6:cjc124_0693"
    INDEX 01 01:13:22
  TRACK 67 AUDIO
    TITLE "0:"
    INDEX 01 01:15:21
